<svg id="ejn2ZoeVI7i1" xmlns="http://www.w3.org/2000/svg" xmlns:xlink="http://www.w3.org/1999/xlink" viewBox="0 0 300 171" shape-rendering="geometricPrecision" text-rendering="geometricPrecision" style="background-color:#515151"><rect width="86.124402" height="30.834662" rx="4" ry="4" transform="matrix(.765428 0 0 1 6.383484 9.354067)" fill="#787878" stroke-width="0"/><rect width="86.124402" height="30.834662" rx="2" ry="2" transform="matrix(1.623453 0 0 2.344826 6.383484 51.01119)" fill="#787878" stroke-width="0"/><rect width="86.124402" height="30.834662" rx="2" ry="2" transform="matrix(1.623453 0 0 2.344826 154.708842 50.01119)" fill="#787878" stroke-width="0"/><rect width="86.124402" height="30.834662" rx="4" ry="4" transform="matrix(.765428 0 0 1 79.824915 9.354067)" fill="#787878" stroke-width="0"/><rect width="86.124402" height="30.834662" rx="4" ry="4" transform="matrix(.765428 0 0 1 154.708842 9.354067)" fill="#787878" stroke-width="0"/><rect width="86.124402" height="30.834662" rx="4" ry="4" transform="matrix(.765428 0 0 1 228.074074 9.354067)" fill="#787878" stroke-width="0"/><rect width="86.124402" height="30.834662" rx="4" ry="4" transform="matrix(1.612877 0 0 1 6.838909 129.582669)" fill="#787878" stroke-width="0"/><rect width="86.124402" height="30.834662" rx="4" ry="4" transform="matrix(1.612877 0 0 1 154.708842 129.582669)" fill="#787878" stroke-width="0"/></svg>
