<svg id="eKhwt0RWBVG1" xmlns="http://www.w3.org/2000/svg" xmlns:xlink="http://www.w3.org/1999/xlink" viewBox="0 0 300 250" shape-rendering="geometricPrecision" text-rendering="geometricPrecision"><rect width="352.844696" height="279.876812" rx="0" ry="0" transform="translate(-26.196698-18.222433)" fill="#8a8a8a" stroke-width="0"/><rect width="60.074429" height="25.518341" rx="6" ry="6" transform="translate(11.989733 24.277867)" fill="#5a595a" stroke-width="0"/><rect width="60.074429" height="25.518341" rx="6" ry="6" transform="translate(85.532175 24.277867)" fill="#5a595a" stroke-width="0"/><rect width="60.074429" height="25.518341" rx="6" ry="6" transform="translate(156.475411 24.277867)" fill="#5a595a" stroke-width="0"/><rect width="60.074429" height="25.518341" rx="6" ry="6" transform="translate(227.935838 24.277867)" fill="#5a595a" stroke-width="0"/><rect width="60.074429" height="25.518341" rx="6" ry="6" transform="matrix(2.124779 0 0 3.459113 11.989733 68.013317)" fill="#5a595a" stroke-width="0"/><rect width="60.074429" height="25.518341" rx="6" ry="6" transform="matrix(2.124779 0 0 1.823878 11.989733 173.378212)" fill="#5a595a" stroke-width="0"/><rect width="60.074429" height="25.518341" rx="6" ry="6" transform="matrix(2.316335 0 0 1.823878 146.973588 173.378212)" fill="#5a595a" stroke-width="0"/><rect width="60.074429" height="25.518341" rx="6" ry="6" transform="matrix(2.347699 0 0 3.628887 146.973589 65.847142)" fill="#5a595a" stroke-width="0"/></svg>
