<svg width="376" height="203" xmlns="http://www.w3.org/2000/svg" preserveAspectRatio="xMidYMid meet" data-background-color="#ffffff">
 <g>
  <title>Layer 1</title>
  <rect stroke="null" id="background" data-fill-palette-color="background" fill="transparent" y="0.00013" x="0.00024" height="201" width="375.99998"/>
  <g transform="matrix(1 0 0 1 132.46 100.396)" id="tight-bounds">
   <svg y="-99.99987" x="-131.99976" id="svg_32" width="375.07953" height="199.20766" viewBox="0 0 375.07952880859375 199.20765686035156">
    <svg id="svg_33"/>
    <svg id="svg_34" width="375.07953" height="199.20766" viewBox="0 0 375.07952880859375 199.20765686035156">
     <g id="svg_35" transform="matrix(1,0,0,1,-10.220239639282227,-29.710128784179688)">
      <path id="svg_36" data-fill-palette-color="tertiary" text-anchor="none" font-size="none" font-weight="none" font-family="none" stroke-dashoffset="0" stroke-miterlimit="10" fill-rule="nonzero" fill="#ffffff" d="m10.22,217.49l0,-187.78l375.08,0l0,187.78l-17.167,0l0,-6.332l10.835,0l0,-175.116l-362.416,0l0,175.116l120.046,0l0,6.332l-126.378,0z" xmlns="http://www.w3.org/2000/svg"/>
      <g id="svg_37">
       <path id="svg_38" data-fill-palette-color="secondary" text-anchor="none" font-size="none" font-weight="none" font-family="none" stroke-dashoffset="0" stroke-miterlimit="10" fill-rule="nonzero" fill="#a855f7" d="m158.88,203.782c-0.378,0 -0.656,0.023 -0.833,0.068c-0.181,0.049 -0.338,0.14 -0.47,0.272l0,0c-0.113,0.113 -0.213,0.268 -0.301,0.465c-0.083,0.2 -0.125,0.385 -0.125,0.556l0,0l-1.558,-0.029c0.038,-0.888 0.321,-1.596 0.85,-2.125l0,0c0.283,-0.264 0.62,-0.457 1.009,-0.578c0.385,-0.125 0.871,-0.196 1.456,-0.215l0,0l12.384,0l0,1.586l-10.712,0l0,6.745l7.311,0l0,1.587l-7.311,0l0,9.464l-1.7,0l0,-17.796zm27.317,16.011l1.219,0.964c-0.283,0.397 -0.599,0.676 -0.947,0.838c-0.351,0.159 -0.754,0.238 -1.207,0.238l0,0c-0.661,0 -1.241,-0.227 -1.74,-0.68c-0.503,-0.453 -0.754,-1.001 -0.753,-1.643l0,0c-1.304,1.511 -2.881,2.267 -4.733,2.267l0,0c-1.417,0 -2.522,-0.346 -3.315,-1.037c-0.793,-0.688 -1.228,-1.73 -1.304,-3.129l0,0l0,-6.064c0,-1.492 -0.397,-2.588 -1.19,-3.287l0,0l1.134,-1.134c0.453,0.283 0.86,0.727 1.218,1.332c0.359,0.605 0.538,1.256 0.538,1.955l0,0l0,6.461c0,1.077 0.242,1.908 0.726,2.494c0.48,0.586 1.268,0.878 2.363,0.879l0,0c1.039,0 1.933,-0.227 2.681,-0.681c0.744,-0.453 1.362,-1.171 1.853,-2.153l0,0l0.029,-10.032l1.7,0l-0.029,11.732c0,0.378 0.091,0.665 0.273,0.861c0.178,0.2 0.399,0.3 0.663,0.301l0,0c0.34,0 0.614,-0.161 0.821,-0.482zm9.323,-12.695c0.567,0 1.133,0.085 1.701,0.255l0,0l0,1.587c-0.548,-0.132 -1.096,-0.198 -1.644,-0.198l0,0c-0.963,0 -1.747,0.236 -2.352,0.708l0,0c-0.605,0.472 -1.143,1.143 -1.615,2.012l0,0l0,10.088l-1.7,0l0,-9.918c0,-1.492 -0.397,-2.588 -1.191,-3.287l0,0l1.134,-1.134c0.34,0.208 0.661,0.52 0.963,0.935c0.302,0.416 0.52,0.878 0.652,1.389l0,0c0.529,-0.869 1.058,-1.464 1.587,-1.785l0,0c0.661,-0.435 1.483,-0.652 2.465,-0.652zm17.541,12.525l1.247,0.935c-0.151,0.321 -0.416,0.589 -0.793,0.805c-0.378,0.219 -0.803,0.329 -1.275,0.329l0,0c-0.756,0 -1.379,-0.236 -1.871,-0.709c-0.491,-0.472 -0.737,-1.086 -0.736,-1.842l0,0l0,-7.112c0,-2.267 -1.02,-3.401 -3.061,-3.401l0,0c-0.963,0 -1.785,0.24 -2.465,0.72c-0.68,0.484 -1.379,1.207 -2.097,2.171l0,0l0,10.031l-1.701,0l0,-9.946c0,-1.492 -0.397,-2.588 -1.19,-3.288l0,0l1.134,-1.133c0.34,0.208 0.665,0.529 0.975,0.963c0.314,0.435 0.537,0.907 0.668,1.417l0,0c0.642,-0.869 1.355,-1.498 2.137,-1.887c0.786,-0.385 1.679,-0.578 2.681,-0.578l0,0c1.379,0 2.475,0.353 3.287,1.06c0.812,0.71 1.256,1.755 1.332,3.134l0,0l0,7.878c0,0.264 0.089,0.486 0.266,0.663c0.181,0.181 0.395,0.272 0.641,0.272l0,0c0.378,0 0.652,-0.161 0.821,-0.482zm5.441,-0.453c0,0.264 0.089,0.486 0.267,0.663c0.181,0.181 0.395,0.272 0.64,0.272l0,0c0.378,0 0.652,-0.161 0.822,-0.482l0,0l1.247,0.935c-0.151,0.321 -0.416,0.589 -0.794,0.805c-0.378,0.219 -0.803,0.329 -1.275,0.329l0,0c-0.756,0 -1.379,-0.236 -1.87,-0.709c-0.491,-0.472 -0.737,-1.086 -0.737,-1.842l0,0l0,-11.76l1.7,0l0,11.789zm-0.935,-13.631c-0.321,0 -0.601,-0.119 -0.839,-0.357c-0.234,-0.234 -0.351,-0.512 -0.351,-0.833l0,0c0,-0.34 0.117,-0.629 0.351,-0.867c0.238,-0.234 0.518,-0.351 0.839,-0.351l0,0c0.34,0 0.627,0.117 0.861,0.351c0.238,0.238 0.357,0.527 0.358,0.867l0,0c0,0.321 -0.119,0.599 -0.358,0.833c-0.234,0.238 -0.521,0.357 -0.861,0.357zm9.776,16.294c-1.285,0 -2.229,-0.365 -2.833,-1.093c-0.605,-0.725 -0.907,-1.815 -0.907,-3.271l0,0l0,-13.63l1.7,0l0,3.599l4.449,0l0,1.53l-4.449,0l0,8.501c0,1.889 0.68,2.834 2.04,2.834l0,0c1.077,0 1.908,-0.576 2.494,-1.728l0,0l1.275,0.878c-0.435,0.793 -0.954,1.389 -1.558,1.785c-0.605,0.397 -1.341,0.595 -2.211,0.595zm19.383,-2.04l1.219,0.964c-0.283,0.397 -0.599,0.676 -0.947,0.838c-0.351,0.159 -0.754,0.238 -1.207,0.238l0,0c-0.661,0 -1.241,-0.227 -1.74,-0.68c-0.503,-0.453 -0.754,-1.001 -0.754,-1.643l0,0c-1.304,1.511 -2.881,2.267 -4.732,2.267l0,0c-1.417,0 -2.522,-0.346 -3.315,-1.037c-0.793,-0.688 -1.228,-1.73 -1.304,-3.129l0,0l0,-6.064c0,-1.492 -0.397,-2.588 -1.19,-3.287l0,0l1.133,-1.134c0.453,0.283 0.86,0.727 1.219,1.332c0.359,0.605 0.538,1.256 0.538,1.955l0,0l0,6.461c0,1.077 0.24,1.908 0.72,2.494c0.484,0.586 1.273,0.878 2.369,0.879l0,0c1.039,0 1.933,-0.227 2.681,-0.681c0.744,-0.453 1.362,-1.171 1.853,-2.153l0,0l0.028,-10.032l1.701,0l-0.029,11.732c0,0.378 0.091,0.665 0.272,0.861c0.178,0.2 0.399,0.3 0.664,0.301l0,0c0.34,0 0.614,-0.161 0.821,-0.482zm9.323,-12.695c0.567,0 1.133,0.085 1.701,0.255l0,0l0,1.587c-0.548,-0.132 -1.096,-0.198 -1.644,-0.198l0,0c-0.963,0 -1.747,0.236 -2.352,0.708l0,0c-0.605,0.472 -1.143,1.143 -1.615,2.012l0,0l0,10.088l-1.7,0l0,-9.918c0,-1.492 -0.397,-2.588 -1.191,-3.287l0,0l1.134,-1.134c0.34,0.208 0.661,0.52 0.963,0.935c0.302,0.416 0.52,0.878 0.652,1.389l0,0c0.529,-0.869 1.058,-1.464 1.587,-1.785l0,0c0.661,-0.435 1.483,-0.652 2.465,-0.652zm9.607,14.735c-1.417,0 -2.616,-0.293 -3.599,-0.878c-0.982,-0.586 -1.723,-1.394 -2.222,-2.426c-0.503,-1.028 -0.754,-2.193 -0.754,-3.497l0,0c0,-1.285 0.242,-2.531 0.726,-3.74c0.48,-1.209 1.207,-2.201 2.182,-2.976c0.971,-0.775 2.156,-1.162 3.553,-1.161l0,0c0.926,0 1.785,0.179 2.579,0.538c0.793,0.359 1.423,0.869 1.887,1.53c0.461,0.661 0.691,1.426 0.692,2.296l0,0c0,1.398 -0.595,2.479 -1.785,3.241c-1.19,0.767 -2.834,1.141 -4.931,1.123l0,0l-3.117,-0.029c0.17,1.455 0.657,2.56 1.462,3.316c0.801,0.756 1.91,1.133 3.327,1.133l0,0c0.85,0 1.64,-0.119 2.369,-0.357c0.725,-0.234 1.428,-0.597 2.108,-1.088l0,0l0.85,1.133c-0.718,0.567 -1.536,1.014 -2.454,1.344c-0.914,0.332 -1.872,0.499 -2.873,0.498zm-1.304,-7.424c3.098,0 4.647,-0.973 4.648,-2.919l0,0c0,-0.945 -0.325,-1.649 -0.975,-2.114c-0.654,-0.461 -1.453,-0.691 -2.398,-0.691l0,0c-1.058,0 -1.95,0.302 -2.675,0.907c-0.729,0.605 -1.273,1.351 -1.632,2.238c-0.359,0.888 -0.538,1.747 -0.538,2.579l0,0l3.57,0zm25.872,7.226l0,-3.655l-8.954,0l0,-1.417l5.781,-13.432l1.841,0l-5.667,13.262l6.999,0l0,-6.32l1.701,0l0,6.32l2.38,0l0,1.587l-2.38,0l0,3.655l-1.701,0zm15.756,-0.085l0,-19.383l1.7,0l0,17.796l9.833,0l0,1.587l-11.533,0zm16.294,-2.38c0,0.264 0.091,0.486 0.272,0.663c0.178,0.181 0.389,0.272 0.635,0.272l0,0c0.378,0 0.652,-0.161 0.822,-0.482l0,0l1.247,0.935c-0.151,0.321 -0.416,0.589 -0.794,0.805c-0.378,0.219 -0.803,0.329 -1.275,0.329l0,0c-0.756,0 -1.379,-0.236 -1.87,-0.709c-0.491,-0.472 -0.737,-1.086 -0.737,-1.842l0,0l0,-11.76l1.7,0l0,11.789zm-0.935,-13.631c-0.321,0 -0.599,-0.119 -0.833,-0.357c-0.238,-0.234 -0.357,-0.512 -0.357,-0.833l0,0c0,-0.34 0.119,-0.629 0.357,-0.867c0.234,-0.234 0.512,-0.351 0.833,-0.351l0,0c0.34,0 0.629,0.117 0.867,0.351c0.234,0.238 0.351,0.527 0.351,0.867l0,0c0,0.321 -0.117,0.599 -0.351,0.833c-0.238,0.238 -0.527,0.357 -0.867,0.357zm6.546,1.786c0,-2.361 0.374,-4.086 1.122,-5.175c0.744,-1.084 1.929,-1.627 3.554,-1.626l0,0c1.285,0 2.295,0.378 3.032,1.133c0.737,0.756 1.105,1.795 1.105,3.117l0,0c0,1.606 -0.525,2.866 -1.576,3.78c-1.047,0.918 -2.439,1.33 -4.177,1.236l0,0l-1.36,-0.085l0,4.704l4.194,0l0,1.53l-4.194,0l0,12.979l-1.7,0l0,-21.593zm3.06,0.991c1.266,0 2.258,-0.317 2.976,-0.952c0.718,-0.631 1.077,-1.504 1.077,-2.618l0,0c0,-0.869 -0.217,-1.536 -0.652,-2.001c-0.435,-0.461 -1.048,-0.691 -1.842,-0.691l0,0c-1.001,0 -1.738,0.419 -2.21,1.258c-0.472,0.843 -0.708,2.152 -0.709,3.928l0,0l0,1.076l1.36,0zm12.866,13.517c-1.417,0 -2.616,-0.293 -3.599,-0.878c-0.982,-0.586 -1.723,-1.394 -2.222,-2.426c-0.503,-1.028 -0.754,-2.193 -0.754,-3.497l0,0c0,-1.285 0.242,-2.531 0.726,-3.74c0.48,-1.209 1.205,-2.201 2.176,-2.976c0.975,-0.775 2.161,-1.162 3.559,-1.161l0,0c0.926,0 1.785,0.179 2.579,0.538c0.793,0.359 1.423,0.869 1.887,1.53c0.461,0.661 0.691,1.426 0.692,2.296l0,0c0,1.398 -0.595,2.479 -1.786,3.241c-1.19,0.767 -2.834,1.141 -4.93,1.123l0,0l-3.117,-0.029c0.17,1.455 0.657,2.56 1.462,3.316c0.801,0.756 1.91,1.133 3.327,1.133l0,0c0.85,0 1.64,-0.119 2.369,-0.357c0.725,-0.234 1.428,-0.597 2.108,-1.088l0,0l0.85,1.133c-0.718,0.567 -1.534,1.014 -2.448,1.344c-0.918,0.332 -1.878,0.499 -2.879,0.498zm-1.304,-7.424c3.098,0 4.647,-0.973 4.647,-2.919l0,0c0,-0.945 -0.325,-1.649 -0.974,-2.114c-0.654,-0.461 -1.453,-0.691 -2.398,-0.691l0,0c-1.058,0 -1.95,0.302 -2.675,0.907c-0.729,0.605 -1.273,1.351 -1.632,2.238c-0.359,0.888 -0.538,1.747 -0.538,2.579l0,0l3.57,0z" xmlns="http://www.w3.org/2000/svg"/>
      </g>
     </g>
     <g id="svg_13" transform="matrix(1,0,0,1,29.331764404296877,64.49789641433462)">
      <svg id="svg_39" width="316.416" height="70.21186" viewBox="0 0 316.416 70.21186403168232">
       <svg id="svg_40" width="316.416" height="70.21186" viewBox="0 0 316.416 70.21186403168232">
        <svg id="svg_41" width="316.416" height="70.21186" viewBox="0 0 316.416 70.21186403168232">
         <svg id="svg_42" width="316.416" height="70.21186" viewBox="0 0 316.416 70.21186403168232">
          <svg id="svg_26" width="316.416" height="70.21186" viewBox="0 0 316.416 70.21186403168232">
           <svg id="svg_43" width="316.416" height="70.21186" viewBox="0 0 316.416 70.21186403168232">
            <svg id="svg_44" data-palette-color="#ffffff" height="70.21186" viewBox="5.699999809265137 -37.099998474121094 167.18348693847656 37.099998474121094" width="316.416">
             <path id="svg_30" data-fill-palette-color="primary" class="undefined-text-0" fill="#ffffff" d="m5.7,-36.6l0,0q0,-0.5 0.45,-0.5l0,0l20.75,0q0.35,0 0.35,0.35l0,0l0,1.3q0,0.35 -0.4,0.35l0,0l-18.4,0q-0.45,0 -0.45,0.45l0,0l0,14.55q0,0.35 0.45,0.35l0,0l14.45,0q0.35,0 0.35,0.35l0,0l0,1.3q0,0.2 -0.07,0.28q-0.08,0.07 -0.33,0.07l0,0l-14.4,0q-0.45,0 -0.45,0.45l0,0l0,14.85q0,0.45 0.45,0.45l0,0l19.15,0q0.4,0 0.4,0.35l0,0l0,1.3q0,0.2 -0.07,0.27q-0.08,0.08 -0.28,0.08l0,0l-21.5,0q-0.45,0 -0.45,-0.5l0,0l0,-36.1zm54,-0.5l0,0q0.25,0 0.35,0.15q0.1,0.15 -0.05,0.4l0,0l-11.95,20.25q-0.15,0.2 -0.18,0.4q-0.02,0.2 -0.02,0.6l0,0l0,14.65q0,0.65 -0.75,0.65l0,0l-0.95,0q-0.35,0 -0.48,-0.15q-0.12,-0.15 -0.12,-0.4l0,0l0,-14.2q0,-0.4 -0.05,-0.58q-0.05,-0.17 -0.2,-0.42l0,0l-12.2,-20.75q-0.15,-0.25 -0.05,-0.43q0.1,-0.17 0.45,-0.17l0,0l1.15,0q0.35,0 0.5,0.1q0.15,0.1 0.3,0.35l0,0l10.5,17.85q0.35,0.6 0.62,0.6q0.28,0 0.58,-0.5l0,0l10.45,-17.95q0.2,-0.3 0.32,-0.37q0.13,-0.08 0.48,-0.08l0,0l1.3,0zm8.5,0.5l0,0q0,-0.5 0.45,-0.5l0,0l20.75,0q0.35,0 0.35,0.35l0,0l0,1.3q0,0.35 -0.41,0.35l0,0l-18.39,0q-0.45,0 -0.45,0.45l0,0l0,14.55q0,0.35 0.45,0.35l0,0l14.45,0q0.35,0 0.35,0.35l0,0l0,1.3q0,0.2 -0.08,0.28q-0.08,0.07 -0.33,0.07l0,0l-14.39,0q-0.45,0 -0.45,0.45l0,0l0,14.85q0,0.45 0.45,0.45l0,0l19.14,0q0.41,0 0.41,0.35l0,0l0,1.3q0,0.2 -0.08,0.27q-0.08,0.08 -0.27,0.08l0,0l-21.5,0q-0.45,0 -0.45,-0.5l0,0l0,-36.1zm56.04,36.25l0,0q0.1,0.15 0.05,0.25q-0.05,0.1 -0.2,0.1l0,0l-1.95,0q-0.4,0 -0.55,-0.25l0,0l-12.9,-20.2q-0.25,-0.35 -0.6,0l0,0l-6.6,7.3q-0.4,0.4 -0.4,0.85l0,0l0,11.85q0,0.45 -0.5,0.45l0,0l-1.3,0q-0.25,0 -0.37,-0.1q-0.13,-0.1 -0.13,-0.35l0,0l0,-36.25q0,-0.4 0.4,-0.4l0,0l1.5,0q0.4,0 0.4,0.4l0,0l0,20.55q0,0.2 0.08,0.22q0.07,0.03 0.27,-0.17l0,0l19.15,-20.8q0.1,-0.1 0.23,-0.15q0.12,-0.05 0.32,-0.05l0,0l1.9,0q0.25,0 0.28,0.12q0.02,0.13 -0.13,0.28l0,0l-12.95,14.15q-0.1,0.1 0,0.3l0,0l14,21.9zm8.7,-36.75l1.4,0q0.45,0 0.45,0.5l0,0l0,36q0,0.35 -0.1,0.47q-0.1,0.13 -0.5,0.13l0,0l-1.15,0q-0.35,0 -0.45,-0.1q-0.1,-0.1 -0.1,-0.4l0,0l0,-36.1q0,-0.5 0.45,-0.5l0,0zm10.55,37.1l0,0q-0.2,0 -0.3,-0.13q-0.1,-0.12 -0.05,-0.32l0,0l13.25,-36.1q0.1,-0.3 0.27,-0.43q0.18,-0.12 0.53,-0.12l0,0l1.65,0q0.75,0 0.9,0.5l0,0l13.1,36.1q0.1,0.2 -0.03,0.35q-0.12,0.15 -0.37,0.15l0,0l-1.2,0q-0.5,0 -0.65,-0.4l0,0l-4.05,-11.15q-0.05,-0.2 -0.15,-0.28q-0.1,-0.07 -0.35,-0.07l0,0l-16.1,0q-0.35,0 -0.5,0.35l0,0l-4.15,11.2q-0.05,0.2 -0.18,0.27q-0.12,0.08 -0.37,0.08l0,0l-1.25,0zm7.15,-13.9l14.55,0q0.5,0 0.35,-0.5l0,0l-7.15,-19.5q-0.2,-0.5 -0.38,-0.5q-0.17,0 -0.37,0.55l0,0l-7.25,19.55q-0.15,0.4 0.25,0.4l0,0z"/>
            </svg>
           </svg>
          </svg>
         </svg>
        </svg>
       </svg>
      </svg>
     </g>
    </svg>

   </svg>
   <rect x="-131.99976" y="-99.99987" id="svg_45" visibility="hidden" fill="none" height="199.20766" width="375.07953"/>
  </g>
 </g>
</svg>