<svg data-background-color="#ffffff" preserveAspectRatio="xMidYMid meet" xmlns="http://www.w3.org/2000/svg" xmlns:xlink="http://www.w3.org/1999/xlink" viewBox="0 0 640 400"><rect width="640" height="400" x="0" y="0" opacity="1" fill="#ffffff" data-fill-palette-color="background" id="background"/><g id="tight-bounds" transform="matrix(1,0,0,1,132.46023559570312,100.39617156982422)"><svg viewBox="0 0 375.07952880859375 199.20765686035156" height="199.20765686035156" width="375.07952880859375"><g><svg/></g><g><svg viewBox="0 0 375.07952880859375 199.20765686035156" height="199.20765686035156" width="375.07952880859375"><g transform="matrix(1,0,0,1,-10.220239639282227,-29.710128784179688)"><path xmlns="http://www.w3.org/2000/svg" d="M10.22 217.49v-187.78h375.08v187.78h-17.167l0-6.332h10.835v-175.116h-362.416v175.116h120.046l0 6.332z" fill="#000000" fill-rule="nonzero" stroke="none" stroke-width="1" stroke-linecap="butt" stroke-linejoin="miter" stroke-miterlimit="10" stroke-dasharray="" stroke-dashoffset="0" font-family="none" font-weight="none" font-size="none" text-anchor="none" style="mix-blend-mode: normal" data-fill-palette-color="tertiary"/><g><path xmlns="http://www.w3.org/2000/svg" d="M158.88 203.782c-0.378 0-0.656 0.023-0.833 0.068-0.181 0.049-0.338 0.14-0.47 0.272v0c-0.113 0.113-0.213 0.268-0.301 0.465-0.083 0.2-0.125 0.385-0.125 0.556v0l-1.558-0.029c0.038-0.888 0.321-1.596 0.85-2.125v0c0.283-0.264 0.62-0.457 1.009-0.578 0.385-0.125 0.871-0.196 1.456-0.215v0h12.384v1.586h-10.712v6.745h7.311v1.587h-7.311v9.464h-1.7zM186.197 219.793l1.219 0.964c-0.283 0.397-0.599 0.676-0.947 0.838-0.351 0.159-0.754 0.238-1.207 0.238v0c-0.661 0-1.241-0.227-1.74-0.68-0.503-0.453-0.754-1.001-0.753-1.643v0c-1.304 1.511-2.881 2.267-4.733 2.267v0c-1.417 0-2.522-0.346-3.315-1.037-0.793-0.688-1.228-1.73-1.304-3.129v0-6.064c0-1.492-0.397-2.588-1.19-3.287v0l1.134-1.134c0.453 0.283 0.86 0.727 1.218 1.332 0.359 0.605 0.538 1.256 0.538 1.955v0 6.461c0 1.077 0.242 1.908 0.726 2.494 0.48 0.586 1.268 0.878 2.363 0.879v0c1.039 0 1.933-0.227 2.681-0.681 0.744-0.453 1.362-1.171 1.853-2.153v0l0.029-10.032h1.7l-0.029 11.732c0 0.378 0.091 0.665 0.273 0.861 0.178 0.2 0.399 0.3 0.663 0.301v0c0.34 0 0.614-0.161 0.821-0.482zM195.52 207.098c0.567 0 1.133 0.085 1.701 0.255v0 1.587c-0.548-0.132-1.096-0.198-1.644-0.198v0c-0.963 0-1.747 0.236-2.352 0.708v0c-0.605 0.472-1.143 1.143-1.615 2.012v0 10.088h-1.7v-9.918c0-1.492-0.397-2.588-1.191-3.287v0l1.134-1.134c0.34 0.208 0.661 0.52 0.963 0.935 0.302 0.416 0.52 0.878 0.652 1.389v0c0.529-0.869 1.058-1.464 1.587-1.785v0c0.661-0.435 1.483-0.652 2.465-0.652zM213.061 219.623l1.247 0.935c-0.151 0.321-0.416 0.589-0.793 0.805-0.378 0.219-0.803 0.329-1.275 0.329v0c-0.756 0-1.379-0.236-1.871-0.709-0.491-0.472-0.737-1.086-0.736-1.842v0-7.112c0-2.267-1.02-3.401-3.061-3.401v0c-0.963 0-1.785 0.24-2.465 0.72-0.68 0.484-1.379 1.207-2.097 2.171v0 10.031h-1.701v-9.946c0-1.492-0.397-2.588-1.19-3.288v0l1.134-1.133c0.34 0.208 0.665 0.529 0.975 0.963 0.314 0.435 0.537 0.907 0.668 1.417v0c0.642-0.869 1.355-1.498 2.137-1.887 0.786-0.385 1.679-0.578 2.681-0.578v0c1.379 0 2.475 0.353 3.287 1.06 0.812 0.71 1.256 1.755 1.332 3.134v0 7.878c0 0.264 0.089 0.486 0.266 0.663 0.181 0.181 0.395 0.272 0.641 0.272v0c0.378 0 0.652-0.161 0.821-0.482zM218.502 219.17c0 0.264 0.089 0.486 0.267 0.663 0.181 0.181 0.395 0.272 0.64 0.272v0c0.378 0 0.652-0.161 0.822-0.482v0l1.247 0.935c-0.151 0.321-0.416 0.589-0.794 0.805-0.378 0.219-0.803 0.329-1.275 0.329v0c-0.756 0-1.379-0.236-1.87-0.709-0.491-0.472-0.737-1.086-0.737-1.842v0-11.76h1.7zM217.567 205.539c-0.321 0-0.601-0.119-0.839-0.357-0.234-0.234-0.351-0.512-0.351-0.833v0c0-0.34 0.117-0.629 0.351-0.867 0.238-0.234 0.518-0.351 0.839-0.351v0c0.34 0 0.627 0.117 0.861 0.351 0.238 0.238 0.357 0.527 0.358 0.867v0c0 0.321-0.119 0.599-0.358 0.833-0.234 0.238-0.521 0.357-0.861 0.357zM227.343 221.833c-1.285 0-2.229-0.365-2.833-1.093-0.605-0.725-0.907-1.815-0.907-3.271v0-13.63h1.7v3.599h4.449v1.53h-4.449v8.501c0 1.889 0.68 2.834 2.04 2.834v0c1.077 0 1.908-0.576 2.494-1.728v0l1.275 0.878c-0.435 0.793-0.954 1.389-1.558 1.785-0.605 0.397-1.341 0.595-2.211 0.595zM246.726 219.793l1.219 0.964c-0.283 0.397-0.599 0.676-0.947 0.838-0.351 0.159-0.754 0.238-1.207 0.238v0c-0.661 0-1.241-0.227-1.74-0.68-0.503-0.453-0.754-1.001-0.754-1.643v0c-1.304 1.511-2.881 2.267-4.732 2.267v0c-1.417 0-2.522-0.346-3.315-1.037-0.793-0.688-1.228-1.73-1.304-3.129v0-6.064c0-1.492-0.397-2.588-1.19-3.287v0l1.133-1.134c0.453 0.283 0.86 0.727 1.219 1.332 0.359 0.605 0.538 1.256 0.538 1.955v0 6.461c0 1.077 0.24 1.908 0.72 2.494 0.484 0.586 1.273 0.878 2.369 0.879v0c1.039 0 1.933-0.227 2.681-0.681 0.744-0.453 1.362-1.171 1.853-2.153v0l0.028-10.032h1.701l-0.029 11.732c0 0.378 0.091 0.665 0.272 0.861 0.178 0.2 0.399 0.3 0.664 0.301v0c0.34 0 0.614-0.161 0.821-0.482zM256.049 207.098c0.567 0 1.133 0.085 1.701 0.255v0 1.587c-0.548-0.132-1.096-0.198-1.644-0.198v0c-0.963 0-1.747 0.236-2.352 0.708v0c-0.605 0.472-1.143 1.143-1.615 2.012v0 10.088h-1.7v-9.918c0-1.492-0.397-2.588-1.191-3.287v0l1.134-1.134c0.34 0.208 0.661 0.52 0.963 0.935 0.302 0.416 0.52 0.878 0.652 1.389v0c0.529-0.869 1.058-1.464 1.587-1.785v0c0.661-0.435 1.483-0.652 2.465-0.652zM265.656 221.833c-1.417 0-2.616-0.293-3.599-0.878-0.982-0.586-1.723-1.394-2.222-2.426-0.503-1.028-0.754-2.193-0.754-3.497v0c0-1.285 0.242-2.531 0.726-3.74 0.48-1.209 1.207-2.201 2.182-2.976 0.971-0.775 2.156-1.162 3.553-1.161v0c0.926 0 1.785 0.179 2.579 0.538 0.793 0.359 1.423 0.869 1.887 1.53 0.461 0.661 0.691 1.426 0.692 2.296v0c0 1.398-0.595 2.479-1.785 3.241-1.19 0.767-2.834 1.141-4.931 1.123v0l-3.117-0.029c0.17 1.455 0.657 2.56 1.462 3.316 0.801 0.756 1.91 1.133 3.327 1.133v0c0.85 0 1.64-0.119 2.369-0.357 0.725-0.234 1.428-0.597 2.108-1.088v0l0.85 1.133c-0.718 0.567-1.536 1.014-2.454 1.344-0.914 0.332-1.872 0.499-2.873 0.498zM264.352 214.409c3.098 0 4.647-0.973 4.648-2.919v0c0-0.945-0.325-1.649-0.975-2.114-0.654-0.461-1.453-0.691-2.398-0.691v0c-1.058 0-1.95 0.302-2.675 0.907-0.729 0.605-1.273 1.351-1.632 2.238-0.359 0.888-0.538 1.747-0.538 2.579v0zM290.224 221.635v-3.655h-8.954v-1.417l5.781-13.432h1.841l-5.667 13.262h6.999v-6.32h1.701v6.32h2.38v1.587h-2.38v3.655zM305.98 221.55v-19.383h1.7v17.796h9.833v1.587zM322.274 219.17c0 0.264 0.091 0.486 0.272 0.663 0.178 0.181 0.389 0.272 0.635 0.272v0c0.378 0 0.652-0.161 0.822-0.482v0l1.247 0.935c-0.151 0.321-0.416 0.589-0.794 0.805-0.378 0.219-0.803 0.329-1.275 0.329v0c-0.756 0-1.379-0.236-1.87-0.709-0.491-0.472-0.737-1.086-0.737-1.842v0-11.76h1.7zM321.339 205.539c-0.321 0-0.599-0.119-0.833-0.357-0.238-0.234-0.357-0.512-0.357-0.833v0c0-0.34 0.119-0.629 0.357-0.867 0.234-0.234 0.512-0.351 0.833-0.351v0c0.34 0 0.629 0.117 0.867 0.351 0.234 0.238 0.351 0.527 0.351 0.867v0c0 0.321-0.117 0.599-0.351 0.833-0.238 0.238-0.527 0.357-0.867 0.357zM327.885 207.325c0-2.361 0.374-4.086 1.122-5.175 0.744-1.084 1.929-1.627 3.554-1.626v0c1.285 0 2.295 0.378 3.032 1.133 0.737 0.756 1.105 1.795 1.105 3.117v0c0 1.606-0.525 2.866-1.576 3.78-1.047 0.918-2.439 1.33-4.177 1.236v0l-1.36-0.085v4.704h4.194v1.53h-4.194v12.979h-1.7zM330.945 208.316c1.266 0 2.258-0.317 2.976-0.952 0.718-0.631 1.077-1.504 1.077-2.618v0c0-0.869-0.217-1.536-0.652-2.001-0.435-0.461-1.048-0.691-1.842-0.691v0c-1.001 0-1.738 0.419-2.21 1.258-0.472 0.843-0.708 2.152-0.709 3.928v0 1.076zM343.811 221.833c-1.417 0-2.616-0.293-3.599-0.878-0.982-0.586-1.723-1.394-2.222-2.426-0.503-1.028-0.754-2.193-0.754-3.497v0c0-1.285 0.242-2.531 0.726-3.74 0.48-1.209 1.205-2.201 2.176-2.976 0.975-0.775 2.161-1.162 3.559-1.161v0c0.926 0 1.785 0.179 2.579 0.538 0.793 0.359 1.423 0.869 1.887 1.53 0.461 0.661 0.691 1.426 0.692 2.296v0c0 1.398-0.595 2.479-1.786 3.241-1.19 0.767-2.834 1.141-4.93 1.123v0l-3.117-0.029c0.17 1.455 0.657 2.56 1.462 3.316 0.801 0.756 1.91 1.133 3.327 1.133v0c0.85 0 1.64-0.119 2.369-0.357 0.725-0.234 1.428-0.597 2.108-1.088v0l0.85 1.133c-0.718 0.567-1.534 1.014-2.448 1.344-0.918 0.332-1.878 0.499-2.879 0.498zM342.507 214.409c3.098 0 4.647-0.973 4.647-2.919v0c0-0.945-0.325-1.649-0.974-2.114-0.654-0.461-1.453-0.691-2.398-0.691v0c-1.058 0-1.95 0.302-2.675 0.907-0.729 0.605-1.273 1.351-1.632 2.238-0.359 0.888-0.538 1.747-0.538 2.579v0z" fill="#a855f7" fill-rule="nonzero" stroke="none" stroke-width="1" stroke-linecap="butt" stroke-linejoin="miter" stroke-miterlimit="10" stroke-dasharray="" stroke-dashoffset="0" font-family="none" font-weight="none" font-size="none" text-anchor="none" style="mix-blend-mode: normal" data-fill-palette-color="secondary"/></g></g><g transform="matrix(1,0,0,1,29.331764404296877,64.49789641433462)"><svg viewBox="0 0 316.416 70.21186403168232" height="70.21186403168232" width="316.416"><g><svg viewBox="0 0 316.416 70.21186403168232" height="70.21186403168232" width="316.416"><g><svg viewBox="0 0 316.416 70.21186403168232" height="70.21186403168232" width="316.416"><g><svg viewBox="0 0 316.416 70.21186403168232" height="70.21186403168232" width="316.416"><g id="textblocktransform"><svg viewBox="0 0 316.416 70.21186403168232" height="70.21186403168232" width="316.416" id="textblock"><g><svg viewBox="0 0 316.416 70.21186403168232" height="70.21186403168232" width="316.416"><g transform="matrix(1,0,0,1,0,0)"><svg width="316.416" viewBox="5.699999809265137 -37.099998474121094 167.18348693847656 37.099998474121094" height="70.21186403168232" data-palette-color="#000000"><path d="M5.7-36.6L5.7-36.6Q5.7-37.1 6.15-37.1L6.15-37.1 26.9-37.1Q27.25-37.1 27.25-36.75L27.25-36.75 27.25-35.45Q27.25-35.1 26.85-35.1L26.85-35.1 8.45-35.1Q8-35.1 8-34.65L8-34.65 8-20.1Q8-19.75 8.45-19.75L8.45-19.75 22.9-19.75Q23.25-19.75 23.25-19.4L23.25-19.4 23.25-18.1Q23.25-17.9 23.18-17.82 23.1-17.75 22.85-17.75L22.85-17.75 8.45-17.75Q8-17.75 8-17.3L8-17.3 8-2.45Q8-2 8.45-2L8.45-2 27.6-2Q28-2 28-1.65L28-1.65 28-0.35Q28-0.15 27.93-0.08 27.85 0 27.65 0L27.65 0 6.15 0Q5.7 0 5.7-0.5L5.7-0.5 5.7-36.6ZM59.7-37.1L59.7-37.1Q59.95-37.1 60.05-36.95 60.15-36.8 60-36.55L60-36.55 48.05-16.3Q47.9-16.1 47.87-15.9 47.85-15.7 47.85-15.3L47.85-15.3 47.85-0.65Q47.85 0 47.1 0L47.1 0 46.15 0Q45.8 0 45.67-0.15 45.55-0.3 45.55-0.55L45.55-0.55 45.55-14.75Q45.55-15.15 45.5-15.33 45.45-15.5 45.3-15.75L45.3-15.75 33.1-36.5Q32.95-36.75 33.05-36.93 33.15-37.1 33.5-37.1L33.5-37.1 34.65-37.1Q35-37.1 35.15-37 35.3-36.9 35.45-36.65L35.45-36.65 45.95-18.8Q46.3-18.2 46.57-18.2 46.85-18.2 47.15-18.7L47.15-18.7 57.6-36.65Q57.8-36.95 57.92-37.02 58.05-37.1 58.4-37.1L58.4-37.1 59.7-37.1ZM68.2-36.6L68.2-36.6Q68.2-37.1 68.65-37.1L68.65-37.1 89.4-37.1Q89.75-37.1 89.75-36.75L89.75-36.75 89.75-35.45Q89.75-35.1 89.34-35.1L89.34-35.1 70.95-35.1Q70.5-35.1 70.5-34.65L70.5-34.65 70.5-20.1Q70.5-19.75 70.95-19.75L70.95-19.75 85.4-19.75Q85.75-19.75 85.75-19.4L85.75-19.4 85.75-18.1Q85.75-17.9 85.67-17.82 85.59-17.75 85.34-17.75L85.34-17.75 70.95-17.75Q70.5-17.75 70.5-17.3L70.5-17.3 70.5-2.45Q70.5-2 70.95-2L70.95-2 90.09-2Q90.5-2 90.5-1.65L90.5-1.65 90.5-0.35Q90.5-0.15 90.42-0.08 90.34 0 90.15 0L90.15 0 68.65 0Q68.2 0 68.2-0.5L68.2-0.5 68.2-36.6ZM124.24-0.35L124.24-0.35Q124.34-0.2 124.29-0.1 124.24 0 124.09 0L124.09 0 122.14 0Q121.74 0 121.59-0.25L121.59-0.25 108.69-20.45Q108.44-20.8 108.09-20.45L108.09-20.45 101.49-13.15Q101.09-12.75 101.09-12.3L101.09-12.3 101.09-0.45Q101.09 0 100.59 0L100.59 0 99.29 0Q99.04 0 98.92-0.1 98.79-0.2 98.79-0.45L98.79-0.45 98.79-36.7Q98.79-37.1 99.19-37.1L99.19-37.1 100.69-37.1Q101.09-37.1 101.09-36.7L101.09-36.7 101.09-16.15Q101.09-15.95 101.17-15.93 101.24-15.9 101.44-16.1L101.44-16.1 120.59-36.9Q120.69-37 120.82-37.05 120.94-37.1 121.14-37.1L121.14-37.1 123.04-37.1Q123.29-37.1 123.32-36.98 123.34-36.85 123.19-36.7L123.19-36.7 110.24-22.55Q110.14-22.45 110.24-22.25L110.24-22.25 124.24-0.35ZM132.94-37.1L134.34-37.1Q134.79-37.1 134.79-36.6L134.79-36.6 134.79-0.6Q134.79-0.25 134.69-0.13 134.59 0 134.19 0L134.19 0 133.04 0Q132.69 0 132.59-0.1 132.49-0.2 132.49-0.5L132.49-0.5 132.49-36.6Q132.49-37.1 132.94-37.1L132.94-37.1ZM143.49 0L143.49 0Q143.29 0 143.19-0.13 143.09-0.25 143.14-0.45L143.14-0.45 156.39-36.55Q156.49-36.85 156.66-36.98 156.84-37.1 157.19-37.1L157.19-37.1 158.84-37.1Q159.59-37.1 159.74-36.6L159.74-36.6 172.84-0.5Q172.94-0.3 172.81-0.15 172.69 0 172.44 0L172.44 0 171.24 0Q170.74 0 170.59-0.4L170.59-0.4 166.54-11.55Q166.49-11.75 166.39-11.83 166.29-11.9 166.04-11.9L166.04-11.9 149.94-11.9Q149.59-11.9 149.44-11.55L149.44-11.55 145.29-0.35Q145.24-0.15 145.11-0.08 144.99 0 144.74 0L144.74 0 143.49 0ZM150.64-13.9L165.19-13.9Q165.69-13.9 165.54-14.4L165.54-14.4 158.39-33.9Q158.19-34.4 158.01-34.4 157.84-34.4 157.64-33.85L157.64-33.85 150.39-14.3Q150.24-13.9 150.64-13.9L150.64-13.9Z" opacity="1" transform="matrix(1,0,0,1,0,0)" fill="#000000" class="undefined-text-0" data-fill-palette-color="primary" id="text-0"/></svg></g></svg></g></svg></g></svg></g></svg></g></svg></g></svg></g></svg></g><defs/></svg><rect width="375.07952880859375" height="199.20765686035156" fill="none" stroke="none" visibility="hidden"/></g></svg>